<svg xmlns="http://www.w3.org/2000/svg" width="800" height="500" viewBox="0 0 800 500">
  <rect width="800" height="500" fill="#0a1414"/>
  <rect width="800" height="500" fill="url(#g)" opacity="0.1"/>
  <defs><linearGradient id="g" x1="0" y1="0" x2="800" y2="500"><stop offset="0%" stop-color="#a855f7"/><stop offset="100%" stop-color="#581c87"/></linearGradient></defs>
  <rect x="100" y="60" width="600" height="380" rx="12" fill="#1a2828" stroke="#2a3a3a" stroke-width="1"/>
  <rect x="120" y="80" width="560" height="100" rx="8" fill="url(#g)" opacity="0.1"/>
  <circle cx="150" cy="120" r="16" fill="#a855f7" opacity="0.3"/>
  <rect x="180" y="108" width="100" height="8" rx="4" fill="#a8b8b8" opacity="0.15"/>
  <rect x="180" y="126" width="160" height="6" rx="3" fill="#a8b8b8" opacity="0.1"/>
  <rect x="120" y="200" width="260" height="220" rx="8" fill="#1a2828" stroke="#2a3a3a" stroke-width="1"/>
  <rect x="140" y="220" width="220" height="8" rx="4" fill="#a8b8b8" opacity="0.15"/>
  <rect x="140" y="240" width="220" height="1" fill="#2a3a3a"/>
  <rect x="140" y="255" width="200" height="30" rx="4" fill="#a855f7" opacity="0.15"/>
  <rect x="140" y="295" width="100" height="30" rx="4" fill="#00a292" opacity="0.15"/>
  <rect x="140" y="335" width="180" height="30" rx="4" fill="#6366f1" opacity="0.15"/>
  <rect x="140" y="375" width="140" height="30" rx="4" fill="#f59e0b" opacity="0.15"/>
  <rect x="400" y="200" width="280" height="100" rx="8" fill="#1a2828" stroke="#2a3a3a" stroke-width="1"/>
  <rect x="420" y="220" width="240" height="8" rx="4" fill="#a8b8b8" opacity="0.15"/>
  <rect x="420" y="240" width="240" height="1" fill="#2a3a3a"/>
  <rect x="420" y="255" width="240" height="25" rx="4" fill="#a8b8b8" opacity="0.05"/>
  <rect x="420" y="287" width="80" height="6" rx="3" fill="#a8b8b8" opacity="0.1"/>
  <rect x="400" y="315" width="280" height="105" rx="8" fill="#1a2828" stroke="#2a3a3a" stroke-width="1"/>
  <rect x="420" y="335" width="240" height="8" rx="4" fill="#a8b8b8" opacity="0.15"/>
  <rect x="420" y="355" width="240" height="1" fill="#2a3a3a"/>
  <rect x="420" y="370" width="60" height="30" rx="4" fill="#10b981" opacity="0.2"/>
  <rect x="495" y="370" width="60" height="30" rx="4" fill="#ef4444" opacity="0.2"/>
  <rect x="570" y="370" width="60" height="30" rx="4" fill="#f59e0b" opacity="0.2"/>
  <text x="400" y="470" font-family="Inter, sans-serif" font-size="12" fill="#5a6b6b" text-anchor="middle">Design System — Component Library Overview</text>
</svg>
