<svg xmlns="http://www.w3.org/2000/svg" width="800" height="500" viewBox="0 0 800 500">
  <rect width="800" height="500" fill="#0a1414"/>
  <rect width="800" height="500" fill="url(#g)" opacity="0.1"/>
  <defs><linearGradient id="g" x1="0" y1="0" x2="800" y2="500"><stop offset="0%" stop-color="#6366f1"/><stop offset="100%" stop-color="#312e81"/></linearGradient></defs>
  <rect x="100" y="80" width="600" height="340" rx="12" fill="#1a2828" stroke="#2a3a3a" stroke-width="1"/>
  <rect x="120" y="100" width="560" height="180" rx="8" fill="url(#g)" opacity="0.25"/>
  <circle cx="150" cy="140" r="16" fill="#6366f1" opacity="0.5"/>
  <rect x="180" y="130" width="120" height="8" rx="4" fill="#a8b8b8" opacity="0.5"/>
  <rect x="180" y="148" width="80" height="6" rx="3" fill="#a8b8b8" opacity="0.3"/>
  <rect x="120" y="300" width="240" height="12" rx="6" fill="#a8b8b8" opacity="0.15"/>
  <rect x="120" y="322" width="560" height="8" rx="4" fill="#a8b8b8" opacity="0.1"/>
  <rect x="120" y="340" width="440" height="8" rx="4" fill="#a8b8b8" opacity="0.1"/>
  <rect x="120" y="358" width="500" height="8" rx="4" fill="#a8b8b8" opacity="0.1"/>
  <rect x="120" y="376" width="300" height="8" rx="4" fill="#a8b8b8" opacity="0.1"/>
  <text x="400" y="470" font-family="Inter, sans-serif" font-size="12" fill="#5a6b6b" text-anchor="middle">UI Design Preview — Text Generation Tool</text>
</svg>
